<svg width="150" height="88" viewBox="0 0 150 88" fill="none" xmlns="http://www.w3.org/2000/svg">
<g clip-path="url(#clip0_416_2)">
<path fill-rule="evenodd" clip-rule="evenodd" d="M0 3C0 1.34315 1.34315 0 3 0H119.114V19.0664H119.113V29.4359H119.113V41.1435H130.821V29.4359H133.496V41.1435H145.204V29.4359H145.204V19.0664H145.204V4.68302L133.496 4.68302V19.0664H130.821V0H147C148.657 0 150 1.34315 150 3V84.2596C150 85.9165 148.657 87.2596 147 87.2596H28.7978V58.478L18.0938 58.478V71.5233H15.4175L15.4175 55.802H28.4638V45.4325L15.4175 45.4325H5.04805L5.04805 71.5233H5.04798V81.8928H5.04805V81.893H15.4175V81.8928H18.0938V87.2596H3C1.34314 87.2596 0 85.9165 0 84.2596V3ZM103.391 45.4325H116.437V55.802H103.391V58.4779H116.437V68.8474H103.391V71.5235H116.437V81.893H93.0219V71.5235H93.022V68.8474H93.0219V58.4779H93.022V55.802H93.0218V45.4325H93.022V45.4324H103.391V45.4325ZM129.481 45.4324L144.868 45.4325V55.802H129.481V58.4779H134.499H144.868H144.868V81.8929L144.868 81.893H119.111V71.5235H134.499V68.8474H119.111V58.4779H119.111L119.111 55.802V45.4325L119.111 45.4324H129.481ZM59.5714 45.4325H59.5707V45.4324H49.2012V45.4325H41.174V45.4324H30.8045L30.8045 45.4325V55.802L30.8045 58.4779H30.8044V68.8474H30.8045V81.8929H41.174V68.8474H49.2012V81.8929H59.5707V68.8474H59.5714V58.4779H59.5707V55.802H59.5714V45.4325ZM41.174 55.802H49.2012V58.4779H41.174V55.802ZM72.283 81.8926V64.1728L76.2699 68.1597L80.311 64.1186V81.8926H90.6805L90.6805 45.4321H80.5248L80.5247 45.432L80.5246 45.4321H80.311V45.667L76.4075 49.9597L72.283 45.6137V45.4321H72.1107H61.9135L61.9135 81.8926H72.283ZM15.4179 30.7738V15.0526H28.4646V4.68308H15.4179V4.68294L5.04842 4.68294L5.04842 41.1434H15.4179V41.1432H28.4636V30.7738H15.4179ZM103.726 15.0525H116.772V4.68302H103.726V4.68294L93.3565 4.68294V30.7738H93.3564V41.1432H93.3565V41.1434H103.726V41.1432H116.771V30.7738H103.726V15.0525ZM43.8505 15.0525H46.5268V30.7738H43.8505L43.8505 15.0525ZM43.8505 4.68302H46.5268V4.68294L59.5723 4.68294L59.5723 30.7738H59.5728V41.1432H59.5723V41.1434H46.5268V41.1432H43.8505V41.1434H30.8051L30.8051 4.68294L43.8505 4.68294V4.68302ZM77.6354 30.7738H74.9596V4.68294L61.9141 4.68294V41.1434H74.9596V41.1432H77.6354V41.1434H91.0154V4.68294L77.6354 4.68294V30.7738Z" fill="#1D60B0"/>
</g>
<defs>
<clipPath id="clip0_416_2">
<rect width="150" height="88" fill="white"/>
</clipPath>
</defs>
</svg>
